<svg width="1000" height="700" viewBox="0 0 1000 700" fill="none" xmlns="http://www.w3.org/2000/svg">
<g clip-path="url(#clip0)">
<path opacity="0.36" d="M854.2 169.428L704.1 255.628" stroke="url(#paint0_linear)" stroke-width="1.8346" stroke-miterlimit="10"/>
<path opacity="0.36" d="M682.3 305.628L790.4 244.228C802.4 237.428 802.5 220.128 790.5 213.128L523.3 58.3277" stroke="url(#paint1_linear)" stroke-width="1.8346" stroke-miterlimit="10"/>
<path opacity="0.36" d="M642.6 284.228L567.3 327.028L642.6 369.728L717.9 327.028L642.6 284.228Z" stroke="url(#paint2_linear)" stroke-width="1.8346" stroke-miterlimit="10"/>
<path opacity="0.36" d="M887 102.428L811.6 145.228L887 187.928L962.2 145.228L887 102.428Z" stroke="url(#paint3_linear)" stroke-width="1.8346" stroke-miterlimit="10"/>
<path opacity="0.36" d="M180.8 462.328L105.5 505.028L180.8 547.828L256 505.028L180.8 462.328Z" stroke="url(#paint4_linear)" stroke-width="1.8346" stroke-miterlimit="10"/>
<path opacity="0.36" d="M592.3 395.028L517 437.828L592.3 480.528L667.6 437.828L592.3 395.028Z" stroke="url(#paint5_linear)" stroke-width="1.8346" stroke-miterlimit="10"/>
<path opacity="0.36" d="M231 78.2277L155.7 121.028L231 163.728L306.3 121.028L231 78.2277Z" stroke="url(#paint6_linear)" stroke-width="1.8346" stroke-miterlimit="10"/>
<path opacity="0.36" d="M666.1 233.828L865.4 346.928C876.8 353.328 877.3 369.528 866.5 376.828L560.2 568.128" stroke="url(#paint7_linear)" stroke-width="1.8346" stroke-miterlimit="10"/>
<path opacity="0.36" d="M163.1 284.228L202.9 306.828" stroke="url(#paint8_linear)" stroke-width="1.8346" stroke-miterlimit="10"/>
<path opacity="0.36" d="M140.9 474.128L44.6 418.828C35.8 413.728 35.8 401.128 44.6 396.028L349.4 221.428" stroke="url(#paint9_linear)" stroke-width="1.8346" stroke-miterlimit="10"/>
<path opacity="0.36" d="M373.7 496.028L276.6 551.228C270 554.928 262 554.928 255.5 551.228L215.2 528.328" stroke="url(#paint10_linear)" stroke-width="1.8346" stroke-miterlimit="10"/>
<path opacity="0.36" d="M390.2 158.728L314.8 201.528L390.2 244.228L465.4 201.528L390.2 158.728Z" stroke="url(#paint11_linear)" stroke-width="1.8346" stroke-miterlimit="10"/>
<path opacity="0.36" d="M256 272.928L318.6 310.328C321.7 312.228 321.7 316.728 318.6 318.628L232 369.628C224.3 374.128 224.2 385.328 231.9 389.928L349.7 460.428" stroke="url(#paint12_linear)" stroke-width="1.8346" stroke-miterlimit="10"/>
<path opacity="0.36" d="M271.5 141.528L344.2 184.928" stroke="url(#paint13_linear)" stroke-width="1.8346" stroke-miterlimit="10"/>
<path opacity="0.36" d="M632.8 458.828L734.1 519.328" stroke="url(#paint14_linear)" stroke-width="1.8346" stroke-miterlimit="10"/>
<path opacity="0.36" d="M429.5 222.828L487.4 257.428C494.6 261.728 503.5 261.728 510.8 257.528L572.2 221.528" stroke="url(#paint15_linear)" stroke-width="1.8346" stroke-miterlimit="10"/>
<path opacity="0.36" d="M121 371.628V385.728C121 386.728 121.8 387.428 122.7 387.428H151.1C152.1 387.428 152.8 386.628 152.8 385.728V371.628C152.8 370.628 152 369.928 151.1 369.928H122.7C121.8 369.928 121 370.728 121 371.628Z" stroke="url(#paint16_linear)" stroke-width="1.8346" stroke-miterlimit="10"/>
<path opacity="0.36" d="M709.5 636.128L692.9 626.228C684 620.928 683.9 608.028 692.7 602.628L762.6 559.528" stroke="url(#paint17_linear)" stroke-width="1.8346" stroke-miterlimit="10"/>
<path opacity="0.36" d="M709.4 637.828V651.928C709.4 652.928 710.2 653.628 711.1 653.628H739.5C740.5 653.628 741.2 652.828 741.2 651.928V637.828C741.2 636.828 740.4 636.128 739.5 636.128H711.1C710.1 636.128 709.4 636.928 709.4 637.828Z" stroke="url(#paint18_linear)" stroke-width="1.8346" stroke-miterlimit="10"/>
<path opacity="0.36" d="M491.4 42.5277V56.6277C491.4 57.6277 492.2 58.3277 493.1 58.3277H521.5C522.5 58.3277 523.2 57.5277 523.2 56.6277V42.5277C523.2 41.5277 522.4 40.8277 521.5 40.8277H493.1C492.2 40.7277 491.4 41.5277 491.4 42.5277Z" stroke="url(#paint19_linear)" stroke-width="1.8346" stroke-miterlimit="10"/>
<path opacity="0.36" d="M532.5 562.728L457.2 605.528L532.6 648.328L607.8 605.528L532.5 562.728Z" stroke="url(#paint20_linear)" stroke-width="1.8346" stroke-miterlimit="10"/>
<path d="M80.8 439.928L87.4 443.828" stroke="url(#paint21_linear)" stroke-width="5.511" stroke-miterlimit="10"/>
<path d="M91.5 369.928L98.4 365.928" stroke="url(#paint22_linear)" stroke-width="5.511" stroke-miterlimit="10"/>
<path d="M249.8 400.528L256.5 404.428" stroke="url(#paint23_linear)" stroke-width="5.511" stroke-miterlimit="10"/>
<path d="M469.1 246.228L475.8 250.128" stroke="url(#paint24_linear)" stroke-width="5.511" stroke-miterlimit="10"/>
<path opacity="0.151" d="M606.2 266.828L541.9 230.228C540.5 229.428 540.7 228.028 542.3 227.128L561.2 216.328L630.6 255.828L611.6 266.528C610 267.528 607.9 267.628 606.2 266.828Z" fill="#636464"/>
<path d="M626.3 243.328L559.9 205.528C558.8 204.828 558.9 203.728 560.2 203.028L626 165.528C627.4 164.828 629 164.728 630.4 165.328L696.8 203.128C697.9 203.828 697.8 204.928 696.5 205.628L630.7 243.128C629.4 243.928 627.7 243.928 626.3 243.328Z" fill="#99A2A6"/>
<path d="M697.6 204.328C697.6 204.828 697.2 205.328 696.5 205.728L630.7 243.228C629.3 243.928 627.7 244.028 626.3 243.428L559.9 205.528C559.3 205.228 559.1 204.728 559.1 204.328V217.028C559.1 217.528 559.4 217.928 559.8 218.128L626.2 255.928C627.6 256.528 629.3 256.528 630.6 255.728L696.4 218.228C696.9 218.028 697.3 217.528 697.5 217.028L697.6 204.328Z" fill="url(#paint25_linear)"/>
<g opacity="0.85">
<g opacity="0.75">
<path opacity="0.6" d="M697.785 -32.6723L630.585 -69.5723C629.185 -70.1723 627.485 -70.1723 626.185 -69.3723L559.285 -31.8723V193.528H559.385C559.485 193.928 559.785 194.228 560.085 194.428L626.485 232.128C627.885 232.728 629.585 232.728 630.885 231.928L696.685 194.728C697.185 194.528 697.585 194.028 697.685 193.528L697.785 -32.6723Z" fill="url(#paint26_linear)"/>
<path opacity="0.8" d="M697.785 -32.6723L630.585 -69.5723C629.185 -70.1723 627.485 -70.1723 626.185 -69.3723L559.285 -31.8723V193.528H559.385C559.485 193.928 559.785 194.228 560.085 194.428L626.485 232.128C627.885 232.728 629.585 232.728 630.885 231.928L696.685 194.728C697.185 194.528 697.585 194.028 697.685 193.528L697.785 -32.6723Z" fill="url(#paint27_linear)"/>
</g>
<g opacity="0.85">
<path opacity="0.8" d="M626.3 219.128L559.9 181.428C558.7 180.728 558.9 179.628 560.2 178.928L626 141.528C627.4 140.728 629 140.728 630.4 141.328L696.8 179.028C698 179.628 697.8 180.828 696.5 181.528L630.7 218.928C629.4 219.728 627.7 219.728 626.3 219.128Z" fill="#FF0000"/>
<path opacity="0.79" d="M697.6 180.128C697.5 180.728 697.1 181.328 696.5 181.528L630.7 218.928C629.3 219.628 627.7 219.728 626.3 219.128L559.9 181.528C559.6 181.428 559.4 181.228 559.3 180.928V193.028C559.3 193.528 559.6 193.928 560 194.028L626.4 231.728C627.8 232.328 629.5 232.328 630.8 231.528L696.6 194.128C697.2 193.828 697.6 193.328 697.7 192.728V180.128H697.6Z" fill="#8D0034"/>
<path opacity="0.85" d="M697.9 180.728L630.7 218.928C629.3 219.628 627.7 219.728 626.3 219.128L559.2 180.928" stroke="white" stroke-width="0.3863"/>
</g>
<g opacity="0.85">
<path opacity="0.8" d="M626.3 193.328L559.9 155.628C558.7 154.928 558.9 153.828 560.2 153.128L626 115.728C627.4 114.928 629 114.928 630.4 115.528L696.8 153.228C698 153.828 697.8 155.028 696.5 155.728L630.7 193.128C629.4 193.928 627.7 194.028 626.3 193.328Z" fill="#FF0000"/>
<path opacity="0.71" d="M697.6 154.428C697.5 155.028 697.1 155.628 696.5 155.828L630.7 193.228C629.3 193.928 627.7 194.028 626.3 193.428L559.9 155.728C559.6 155.628 559.4 155.428 559.3 155.128V167.228C559.3 167.728 559.6 168.128 560 168.228L626.4 205.928C627.8 206.528 629.5 206.528 630.8 205.728L696.6 168.328C697.2 168.028 697.6 167.528 697.7 166.928V154.328H697.6V154.428Z" fill="#8D0034"/>
<path opacity="0.85" d="M697.9 154.928L630.7 193.128C629.3 193.828 627.7 193.928 626.3 193.328L559.2 155.128" stroke="white" stroke-width="0.3863"/>
</g>
<path opacity="0.8" d="M626.3 168.828L559.9 131.128C558.7 130.428 558.9 129.328 560.2 128.628L626 91.2277C627.4 90.4277 629 90.4277 630.4 91.0277L696.8 128.728C698 129.328 697.8 130.528 696.5 131.228L630.7 168.628C629.4 169.328 627.7 169.428 626.3 168.828Z" fill="#FF0000"/>
<path opacity="0.86" d="M697.6 129.828C697.5 130.428 697.1 131.028 696.5 131.228L630.7 168.628C629.3 169.328 627.7 169.428 626.3 168.828L559.9 131.128C559.6 131.028 559.4 130.828 559.3 130.528V142.628C559.3 143.128 559.6 143.528 560 143.628L626.4 181.328C627.8 181.928 629.5 181.928 630.8 181.128L696.6 143.728C697.2 143.428 697.6 142.928 697.7 142.328V129.728H697.6V129.828Z" fill="#8D0034"/>
<path opacity="0.85" d="M654.2 121.428L667.5 128.828L654.2 136.128V121.428Z" fill="#6A0220"/>
<path opacity="0.85" d="M629.1 110.328L636.7 108.328L634.1 113.428L641.2 116.928L631.4 117.628L628.4 123.628L625.9 116.628L613.3 115.228L623.8 111.628L623.4 106.628L629.1 110.328ZM631 151.228L615.7 142.328L637.6 137.628L631 151.228ZM604.4 122.928C611.2 122.928 616.7 125.928 616.7 129.628C616.7 133.328 611.2 136.328 604.4 136.328C597.6 136.328 592.1 133.328 592.1 129.628C592.1 125.928 597.6 122.928 604.4 122.928Z" fill="white"/>
<path opacity="0.85" d="M654.2 121.428V136.128L652.8 136.928L639.5 129.628L654.2 121.428Z" fill="#D60541"/>
<path opacity="0.85" d="M697.9 130.428L630.7 168.628C629.3 169.328 627.7 169.428 626.3 168.828L559.2 130.628" stroke="white" stroke-width="0.3863"/>
</g>
<path opacity="0.151" d="M571.1 485.628L506.8 449.028C505.4 448.228 505.6 446.828 507.2 445.928L526.1 435.128L595.5 474.628L576.6 485.328C574.9 486.328 572.8 486.428 571.1 485.628Z" fill="#636464"/>
<path d="M591.2 462.228L524.8 424.428C523.7 423.728 523.8 422.628 525.1 421.928L590.9 384.428C592.3 383.728 593.9 383.628 595.3 384.228L661.7 422.028C662.8 422.728 662.7 423.828 661.4 424.528L595.6 462.028C594.3 462.728 592.6 462.828 591.2 462.228Z" fill="#99A2A6"/>
<path d="M662.5 423.228C662.5 423.728 662.1 424.228 661.4 424.628L595.6 462.028C594.2 462.728 592.6 462.828 591.2 462.228L524.8 424.428C524.2 424.128 524 423.628 524 423.228V435.928C524 436.428 524.3 436.828 524.7 437.028L591.1 474.828C592.5 475.428 594.2 475.428 595.5 474.628L661.3 437.128C661.8 436.928 662.2 436.428 662.4 435.928L662.5 423.228Z" fill="url(#paint28_linear)"/>
<path opacity="0.8" d="M591.1 436.228L524.7 398.528C523.5 397.828 523.7 396.728 525 396.028L590.8 358.628C592.2 357.828 593.8 357.828 595.2 358.428L661.6 396.128C662.8 396.728 662.6 397.928 661.3 398.628L595.5 436.028C594.2 436.728 592.5 436.828 591.1 436.228Z" fill="#E57A22"/>
<path opacity="0.8" d="M662.4 397.228C662.3 397.828 661.9 398.428 661.3 398.628L595.5 436.028C594.1 436.728 592.5 436.828 591.1 436.228L524.7 398.528C524.4 398.428 524.2 398.228 524.1 397.928V410.028C524.1 410.528 524.4 410.928 524.8 411.028L591.2 448.728C592.6 449.328 594.3 449.328 595.6 448.528L661.4 411.128C662 410.828 662.4 410.328 662.5 409.728V397.128H662.4V397.228Z" fill="#DD5A19"/>
<path opacity="0.8" d="M662.7 397.728L595.5 435.928C594.1 436.628 592.5 436.728 591.1 436.128L524 397.928" stroke="white" stroke-width="0.3863"/>
<path d="M618.4 401.728H601V396.728H584V394.028H580.5V398.628H597.6V403.728H618.4V401.728Z" fill="white"/>
<path d="M598.1 379.828H585.6V381.828H592L568.9 395.228C565.7 397.128 565.7 400.228 568.9 402.028L592 415.328H585.6V417.328H598.1V410.028H594.7V414.128L571.3 400.628C569.4 399.528 569.4 397.728 571.3 396.628L594.7 383.028V387.028H598.1V379.828Z" fill="white"/>
<path opacity="0.151" d="M104.6 318.028L40.3 281.428C38.9 280.628 39.1 279.228 40.7 278.328L59.6 267.528L129 307.028L110.1 317.728C108.3 318.728 106.3 318.828 104.6 318.028Z" fill="#636464"/>
<path d="M124.7 294.628L58.2999 256.828C57.1999 256.128 57.3 255.028 58.6 254.328L124.4 216.828C125.8 216.128 127.4 216.028 128.8 216.628L195.2 254.428C196.3 255.128 196.2 256.228 194.9 256.928L129.1 294.428C127.8 295.128 126.1 295.228 124.7 294.628Z" fill="#99A2A6"/>
<path d="M196 255.528C196 256.028 195.6 256.528 194.9 256.928L129.1 294.428C127.7 295.128 126.1 295.228 124.7 294.628L58.3 256.828C57.7 256.528 57.5 256.028 57.5 255.628V268.328C57.5 268.828 57.8 269.228 58.2 269.428L124.6 307.228C126 307.828 127.7 307.828 129 307.028L194.8 269.528C195.3 269.328 195.7 268.828 195.9 268.328L196 255.528Z" fill="url(#paint29_linear)"/>
<path opacity="0.8" d="M124.6 268.528L58.2 230.828C57 230.128 57.2 229.028 58.5 228.328L124.3 190.928C125.7 190.128 127.3 190.128 128.7 190.728L195.1 228.428C196.3 229.028 196.1 230.228 194.8 230.928L129 268.328C127.6 269.128 126 269.228 124.6 268.528Z" fill="#E57A22"/>
<path opacity="0.8" d="M195.9 229.628C195.8 230.228 195.4 230.828 194.8 231.028L129 268.428C127.6 269.128 126 269.228 124.6 268.628L58.2 230.928C57.9 230.828 57.7 230.628 57.6 230.328V242.428C57.6 242.928 57.9 243.328 58.3 243.428L124.7 281.128C126.1 281.728 127.8 281.728 129.1 280.928L194.9 243.528C195.5 243.228 195.9 242.728 196 242.128V229.528H195.9V229.628Z" fill="#DD5A19"/>
<path opacity="0.8" d="M196.1 230.128L128.9 268.328C127.5 269.028 125.9 269.128 124.5 268.528L57.4 230.328" stroke="white" stroke-width="0.3863"/>
<path d="M119.9 234.028C116.2 231.928 116.2 228.428 119.9 226.228C123.6 224.128 129.6 224.128 133.3 226.228C137 228.328 137 231.828 133.3 234.028C129.7 236.128 123.7 236.128 119.9 234.028ZM135.9 224.728C130.8 221.728 122.4 221.728 117.3 224.728C112.2 227.728 112.2 232.528 117.4 235.528C122.5 238.528 130.9 238.528 136 235.528C141.1 232.528 141 227.728 135.9 224.728Z" fill="white"/>
<path d="M151.2 220.328L148.6 218.828L146.7 219.928C144.7 221.128 144.2 222.928 145.5 224.328C146.1 225.028 146.6 225.628 147 226.428C147.3 227.028 147.9 227.528 148.6 227.928C149.8 228.628 151.5 229.028 153.3 229.028H155.9V226.928H153.3C152.5 226.928 151.7 226.728 151.2 226.428C150.9 226.228 150.6 226.028 150.5 225.828C150.1 225.028 149.5 224.128 148.8 223.428C148.2 222.828 148.5 222.028 149.4 221.428L151.2 220.328Z" fill="white"/>
<path d="M156 231.228H153.4C150.5 231.228 148 232.328 147.1 233.928C146.7 234.628 146.2 235.328 145.6 236.028C144.3 237.428 144.8 239.328 146.9 240.528L148.8 241.628L151.4 240.128L149.5 239.028C148.6 238.528 148.3 237.728 148.9 237.028C149.6 236.228 150.2 235.428 150.6 234.628C151 233.928 152.1 233.428 153.4 233.428H156V231.228Z" fill="white"/>
<path d="M146.2 242.928L144.3 241.828C142.2 240.628 139.1 240.328 136.6 241.128C135.5 241.428 134.3 241.728 133.1 242.028C130.4 242.528 128.5 244.028 128.5 245.728V247.228H132.2V245.728C132.2 245.028 133 244.328 134.2 244.128C135.6 243.828 137 243.528 138.4 243.128C139.5 242.828 140.9 242.928 141.8 243.428L143.7 244.528L146.2 242.928Z" fill="white"/>
<path d="M122.9 242.928C122.2 242.528 121.3 242.228 120.2 242.028C119 241.828 117.8 241.528 116.6 241.128C114.1 240.328 111 240.628 108.9 241.828L107 242.928L109.6 244.428L111.5 243.328C112.4 242.828 113.8 242.628 114.9 243.028C116.2 243.428 117.6 243.728 119.1 244.028C119.5 244.128 119.9 244.228 120.2 244.428C120.7 244.728 121.1 245.228 121.1 245.628V247.128H124.8V245.628C124.9 244.628 124.2 243.628 122.9 242.928Z" fill="white"/>
<path d="M104.6 232.328C103.4 231.628 101.7 231.228 99.9001 231.228H97.3V233.328H99.9001C100.7 233.328 101.5 233.528 102 233.828C102.3 234.028 102.6 234.228 102.7 234.428C103.1 235.228 103.7 236.128 104.4 236.828C105 237.428 104.7 238.228 103.8 238.828L101.9 239.928L104.5 241.428L106.4 240.328C108.4 239.128 108.9 237.328 107.6 235.928C107 235.228 106.5 234.528 106.1 233.828C105.9 233.228 105.3 232.728 104.6 232.328Z" fill="white"/>
<path d="M106.4 219.928L104.5 218.828L101.9 220.328L103.8 221.428C104.7 221.928 105 222.728 104.4 223.428C103.7 224.228 103.1 225.028 102.7 225.828C102.4 226.528 101.2 227.028 99.9001 227.028H97.3V229.128H99.9001C102.8 229.128 105.4 228.028 106.2 226.428C106.6 225.728 107.1 225.028 107.7 224.328C108.9 222.928 108.4 221.128 106.4 219.928Z" fill="white"/>
<path d="M124.7 213.128H121V214.628C121 215.328 120.2 216.028 119 216.228C117.6 216.528 116.2 216.828 114.8 217.228C113.7 217.528 112.3 217.428 111.4 216.928L109.5 215.828L106.9 217.328L108.8 218.428C110.8 219.628 114 219.928 116.5 219.128C117.6 218.828 118.8 218.528 120 218.228C122.7 217.728 124.6 216.228 124.6 214.528L124.7 213.128Z" fill="white"/>
<path d="M146 217.328L143.4 215.828L141.5 216.928C140.6 217.428 139.2 217.628 138.1 217.228C136.8 216.828 135.4 216.528 133.9 216.228C133.5 216.128 133.1 216.028 132.8 215.828C132.3 215.528 131.9 215.028 131.9 214.628V213.128H128.2V214.628C128.2 215.728 128.9 216.628 130.1 217.328C130.8 217.728 131.7 218.028 132.7 218.228C133.9 218.428 135.1 218.728 136.3 219.128C138.8 219.928 141.9 219.628 144 218.428L146 217.328Z" fill="white"/>
<path opacity="0.151" d="M368.4 250.728L304.1 214.128C302.7 213.328 302.9 211.928 304.5 211.028L323.4 200.228L392.8 239.728L373.9 250.428C372.1 251.428 370.1 251.528 368.4 250.728Z" fill="#636464"/>
<path d="M388.5 227.228L322.1 189.428C321 188.728 321.1 187.628 322.4 186.928L388.2 149.428C389.6 148.728 391.2 148.628 392.6 149.228L459 187.028C460.1 187.728 460 188.828 458.7 189.528L392.9 227.028C391.6 227.828 389.9 227.828 388.5 227.228Z" fill="#99A2A6"/>
<path d="M459.8 188.228C459.8 188.728 459.4 189.228 458.7 189.628L392.9 227.128C391.5 227.828 389.9 227.928 388.5 227.328L322.1 189.528C321.5 189.228 321.3 188.728 321.3 188.328V201.028C321.3 201.528 321.6 201.928 322 202.128L388.4 239.928C389.8 240.528 391.5 240.528 392.8 239.728L458.6 202.228C459.1 202.028 459.5 201.528 459.7 201.028L459.8 188.228Z" fill="url(#paint30_linear)"/>
<path opacity="0.8" d="M388.4 201.228L321.9 163.528C320.7 162.828 320.9 161.728 322.2 161.028L388 123.628C389.4 122.828 391 122.828 392.4 123.428L458.8 161.128C460 161.728 459.8 162.928 458.5 163.628L392.7 201.028C391.4 201.728 389.8 201.828 388.4 201.228Z" fill="#829EF0"/>
<path opacity="0.8" d="M459.7 162.228C459.6 162.828 459.2 163.428 458.6 163.628L392.8 201.028C391.4 201.728 389.8 201.828 388.4 201.228L321.9 163.528C321.6 163.428 321.4 163.228 321.3 162.928V175.028C321.3 175.528 321.6 175.928 322 176.028L388.4 213.728C389.8 214.328 391.5 214.328 392.8 213.528L458.6 176.128C459.2 175.828 459.6 175.328 459.7 174.728V162.128V162.128V162.228Z" fill="#666DFA"/>
<path opacity="0.8" d="M459.9 162.828L392.7 201.028C391.3 201.728 389.7 201.828 388.3 201.228L321.2 163.028" stroke="white" stroke-width="0.3863"/>
<path d="M392.9 157.528C392 157.028 391.3 156.428 390.7 155.828C390.2 155.228 389.9 154.628 389.7 154.028C389.6 153.428 389.6 152.928 389.9 152.428C390.1 151.928 390.5 151.528 391.1 151.228C391.7 150.928 392.4 150.728 393.2 150.528C394 150.428 394.9 150.328 395.9 150.428C396.9 150.528 397.9 150.728 398.9 151.028C399.9 151.328 400.9 151.728 401.8 152.228C402.7 152.728 403.4 153.328 403.9 153.928C404.4 154.528 404.7 155.128 404.9 155.628C405 156.228 405 156.728 404.8 157.228C404.6 157.728 404.2 158.128 403.6 158.428C403 158.728 402.4 159.028 401.6 159.128C400.8 159.228 399.9 159.328 398.9 159.228C397.9 159.128 396.9 158.928 395.8 158.628C394.8 158.428 393.8 158.028 392.9 157.528ZM404.2 150.928C403.1 150.328 401.8 149.728 400.5 149.328C399.2 148.928 397.8 148.628 396.4 148.528C395 148.428 393.6 148.428 392.3 148.628C390.9 148.828 389.7 149.228 388.7 149.828C387.7 150.428 387 151.028 386.6 151.828C386.2 152.528 386.1 153.328 386.3 154.228C386.5 155.028 386.9 155.828 387.6 156.628C388.3 157.428 389.2 158.128 390.4 158.828C391.5 159.528 392.8 160.028 394.2 160.428C395.6 160.828 397 161.128 398.4 161.228C399.9 161.328 401.2 161.328 402.5 161.028C403.9 160.828 405 160.428 406 159.828C407 159.228 407.6 158.528 408 157.828C408.4 157.128 408.4 156.328 408.2 155.428C408 154.628 407.5 153.828 406.9 153.028C406.3 152.328 405.4 151.528 404.2 150.928ZM386.2 161.128C384.2 159.928 382.5 158.628 381.3 157.228C380.1 155.928 379.4 154.528 379.1 153.128C378.8 151.828 379 150.528 379.6 149.428C380.2 148.328 381.3 147.328 382.7 146.528C384.1 145.728 385.9 145.228 387.9 144.928C389.9 144.628 392 144.628 394.3 144.828C396.6 145.028 398.9 145.428 401.1 146.128C403.4 146.828 405.6 147.728 407.5 148.828C409.4 149.928 411 151.228 412.3 152.528C413.5 153.828 414.2 155.128 414.6 156.528C415 157.828 414.9 159.128 414.4 160.228C413.9 161.428 412.9 162.428 411.6 163.228C411.2 163.528 410.7 163.728 410.2 164.028C409.7 164.228 409.1 164.428 408.5 164.628C407.9 164.828 407.3 164.928 406.6 165.028C405.9 165.128 405.2 165.228 404.5 165.328L402.8 165.428L404.3 171.628C404.3 171.728 404.3 171.928 404.3 172.028C404.3 172.128 404.3 172.328 404.2 172.428C404.1 172.528 404.1 172.628 404 172.728C403.9 172.828 403.8 172.928 403.7 173.028C403.6 173.128 403.4 173.128 403.3 173.228C403.2 173.328 403 173.328 402.8 173.328C402.6 173.328 402.4 173.428 402.2 173.428C402 173.428 401.8 173.428 401.5 173.428C401.2 173.428 401 173.328 400.7 173.328C400.4 173.328 400.2 173.228 399.9 173.128C399.6 173.028 399.4 172.928 399.1 172.828C398.8 172.728 398.6 172.628 398.4 172.428C398.2 172.328 398 172.128 397.8 172.028C397.6 171.928 397.5 171.728 397.3 171.528C397.2 171.328 397.1 171.228 397 171.028C396.9 170.828 396.9 170.728 396.8 170.528L395.4 164.628L394.5 164.428C393.7 164.228 393 164.028 392.2 163.828C391.5 163.628 390.7 163.328 390 163.028C389.3 162.728 388.6 162.428 387.9 162.128C387.5 161.828 386.8 161.528 386.2 161.128ZM410.1 147.428C407.9 146.228 405.5 145.128 402.8 144.328C400.2 143.528 397.6 143.028 394.9 142.828C392.2 142.628 389.5 142.628 387.1 143.028C384.5 143.428 382.3 144.128 380.4 145.128C378.5 146.128 377.1 147.428 376.4 148.828C375.6 150.228 375.4 151.828 375.7 153.428C376 155.028 376.9 156.628 378.2 158.228C379.6 159.828 381.5 161.328 383.8 162.628C384.5 163.028 385.2 163.428 386 163.728C386.8 164.128 387.6 164.428 388.4 164.728C389.2 165.028 390 165.328 390.9 165.628C391.4 165.828 392 165.928 392.6 166.128L393.7 170.928C393.8 171.228 393.9 171.428 394 171.728C394.2 172.028 394.3 172.228 394.5 172.528C394.7 172.828 395 173.028 395.3 173.228C395.6 173.428 395.9 173.728 396.3 173.928C396.7 174.128 397 174.328 397.4 174.528C397.8 174.728 398.2 174.828 398.6 174.928C399 175.028 399.5 175.128 399.9 175.228C400.4 175.328 400.8 175.328 401.3 175.428C401.8 175.428 402.2 175.428 402.7 175.428C403.2 175.428 403.6 175.328 404 175.228C404.4 175.128 404.9 175.028 405.2 174.928C405.6 174.828 405.9 174.628 406.3 174.428C406.6 174.228 406.9 174.028 407.1 173.728C407.3 173.528 407.5 173.228 407.6 173.028C407.7 172.728 407.8 172.528 407.8 172.228C407.8 171.928 407.8 171.728 407.7 171.428L406.7 167.128C407 167.128 407.3 167.028 407.6 166.928C408.4 166.728 409.2 166.628 410 166.328C410.8 166.128 411.5 165.828 412.2 165.528C412.9 165.228 413.5 164.928 414.1 164.528C415.8 163.428 417.1 162.128 417.7 160.628C418.3 159.228 418.4 157.728 418 156.128C417.6 154.628 416.7 153.028 415.4 151.528C414.1 150.128 412.3 148.628 410.1 147.428Z" fill="white"/>
<path d="M373.9 152.128L370.8 151.228C370.5 151.628 370.1 152.028 369.9 152.528C369.1 153.928 368.9 155.428 369.2 157.128C369.5 158.728 370.4 160.328 371.7 161.928C373.1 163.528 374.9 165.028 377.2 166.328C377.9 166.728 378.7 167.128 379.5 167.528C380.2 167.928 381 168.228 381.8 168.528C382.6 168.828 383.5 169.128 384.3 169.428C384.8 169.628 385.4 169.728 386 169.928L387.1 174.728C387.1 175.028 387.3 175.328 387.4 175.528C387.5 175.828 387.7 176.028 387.9 176.328C388.1 176.628 388.4 176.828 388.7 177.028C389 177.228 389.3 177.428 389.7 177.728C390.1 177.928 390.4 178.128 390.8 178.328C391.2 178.528 391.6 178.628 392 178.728C392.4 178.828 392.9 178.928 393.3 179.028C393.8 179.128 394.2 179.128 394.7 179.228C395.2 179.228 395.6 179.228 396.1 179.228C396.6 179.228 397 179.128 397.4 179.028L396.3 177.128C396.1 177.128 395.9 177.228 395.7 177.228C395.5 177.228 395.3 177.228 395 177.228C394.7 177.228 394.5 177.228 394.2 177.128C393.9 177.128 393.7 177.028 393.4 176.928C393.1 176.828 392.9 176.728 392.6 176.628C392.3 176.528 392.1 176.428 391.9 176.228C391.7 176.128 391.5 175.928 391.3 175.828C391.1 175.728 390.9 175.528 390.8 175.428C390.7 175.228 390.6 175.128 390.5 174.928C390.4 174.728 390.3 174.628 390.3 174.428L388.9 168.428L388 168.228C387.2 168.028 386.5 167.828 385.7 167.628C385 167.428 384.2 167.128 383.5 166.828C382.8 166.528 382.1 166.228 381.4 165.928C380.7 165.628 380 165.228 379.4 164.928C377.4 163.728 375.8 162.428 374.5 161.028C373.3 159.628 372.6 158.328 372.3 156.928C372 155.628 372.2 154.328 372.8 153.228C373.4 152.828 373.6 152.428 373.9 152.128Z" fill="white"/>
<path d="M367.2 156.028L364.1 155.128C363.7 155.528 363.4 155.928 363.2 156.428C362.4 157.828 362.2 159.328 362.5 161.028C362.8 162.628 363.7 164.228 365 165.828C366.4 167.428 368.2 168.928 370.5 170.228C371.2 170.628 372 171.028 372.7 171.428C373.4 171.828 374.2 172.128 375 172.428C375.8 172.728 376.6 173.028 377.5 173.328C378 173.528 378.6 173.628 379.2 173.828L380.3 178.628C380.4 178.928 380.5 179.228 380.6 179.428C380.7 179.728 380.9 179.928 381.1 180.228C381.3 180.428 381.6 180.728 381.9 180.928C382.2 181.128 382.5 181.328 382.9 181.628C383.3 181.828 383.6 182.028 384 182.228C384.4 182.428 384.8 182.528 385.3 182.628C385.7 182.728 386.2 182.828 386.6 182.928C387.1 183.028 387.6 183.028 388 183.128C388.5 183.128 388.9 183.128 389.4 183.128C389.9 183.128 390.3 183.028 390.7 182.928L389.6 181.028C389.4 181.028 389.2 181.128 389 181.128C388.8 181.128 388.6 181.128 388.3 181.128C388 181.128 387.8 181.128 387.5 181.028C387.2 181.028 387 180.928 386.7 180.828C386.4 180.728 386.2 180.628 385.9 180.528C385.6 180.428 385.4 180.328 385.2 180.128C385 180.028 384.8 179.828 384.6 179.728C384.4 179.628 384.3 179.428 384.1 179.328C384 179.128 383.8 179.028 383.8 178.828C383.7 178.628 383.7 178.528 383.6 178.328L382.2 172.328L381.3 172.128C380.5 171.928 379.8 171.728 379 171.528C378.3 171.328 377.5 171.028 376.8 170.728C376.1 170.428 375.4 170.128 374.7 169.828C374 169.528 373.3 169.128 372.7 168.828C370.7 167.628 369 166.328 367.8 164.928C366.6 163.528 365.9 162.228 365.6 160.828C365.3 159.528 365.5 158.228 366.1 157.128C366.7 156.728 367 156.328 367.2 156.028Z" fill="white"/>
<path opacity="0.151" d="M371.6 527.128L307.3 490.528C305.9 489.728 306.1 488.328 307.7 487.428L326.6 476.628L396 516.128L377.1 526.828C375.3 527.828 373.3 527.828 371.6 527.128Z" fill="#636464"/>
<path d="M391.7 503.628L325.3 465.828C324.2 465.128 324.3 464.028 325.6 463.328L391.4 425.828C392.8 425.128 394.4 425.028 395.8 425.628L462.2 463.428C463.3 464.128 463.2 465.228 461.9 465.928L396.1 503.428C394.7 504.128 393.1 504.228 391.7 503.628Z" fill="#99A2A6"/>
<path d="M463 464.628C463 465.128 462.6 465.628 461.9 466.028L396.1 503.528C394.7 504.228 393.1 504.328 391.7 503.728L325.3 465.928C324.7 465.628 324.5 465.128 324.5 464.728V477.428C324.5 477.928 324.8 478.328 325.2 478.528L391.6 516.328C393 516.928 394.7 516.928 396 516.128L461.8 478.628C462.3 478.428 462.7 477.928 462.9 477.428L463 464.628Z" fill="url(#paint31_linear)"/>
<g opacity="0.85">
<g opacity="0.75">
<path opacity="0.6" d="M463.185 227.628L395.985 190.728C394.585 190.128 392.885 190.128 391.585 190.928L324.685 228.428V453.828H324.785C324.885 454.228 325.185 454.528 325.485 454.728L391.885 492.428C393.285 493.028 394.985 493.028 396.285 492.228L462.085 455.028C462.585 454.828 462.985 454.328 463.085 453.828L463.185 227.628Z" fill="url(#paint32_linear)"/>
<path opacity="0.8" d="M463.185 227.628L395.985 190.728C394.585 190.128 392.885 190.128 391.585 190.928L324.685 228.428V453.828H324.785C324.885 454.228 325.185 454.528 325.485 454.728L391.885 492.428C393.285 493.028 394.985 493.028 396.285 492.228L462.085 455.028C462.585 454.828 462.985 454.328 463.085 453.828L463.185 227.628Z" fill="url(#paint33_linear)"/>
</g>
<g opacity="0.85">
<path opacity="0.8" d="M391.7 479.428L325.3 441.728C324.1 441.028 324.3 439.928 325.6 439.228L391.4 401.828C392.8 401.028 394.4 401.028 395.8 401.628L462.2 439.328C463.4 439.928 463.2 441.128 461.9 441.828L396.1 479.228C394.7 480.028 393.1 480.028 391.7 479.428Z" fill="#FF0000"/>
<path opacity="0.79" d="M463 440.428C462.9 441.028 462.5 441.628 461.9 441.828L396.1 479.228C394.7 479.928 393.1 480.028 391.7 479.428L325.3 441.728C325 441.628 324.8 441.428 324.7 441.128V453.228C324.7 453.728 325 454.128 325.4 454.228L391.8 491.928C393.2 492.528 394.9 492.528 396.2 491.728L462 454.328C462.6 454.028 463 453.528 463.1 452.928V440.328H463V440.428Z" fill="#8D0034"/>
<path opacity="0.85" d="M463.3 441.028L396.1 479.228C394.7 479.928 393.1 480.028 391.7 479.428L324.6 441.228" stroke="white" stroke-width="0.3863"/>
</g>
<g opacity="0.85">
<path opacity="0.8" d="M391.7 453.628L325.3 415.928C324.1 415.228 324.3 414.128 325.6 413.428L391.4 376.028C392.8 375.228 394.4 375.228 395.8 375.828L462.2 413.528C463.4 414.128 463.2 415.328 461.9 416.028L396.1 453.428C394.7 454.228 393.1 454.228 391.7 453.628Z" fill="#FF0000"/>
<path opacity="0.71" d="M463 414.628C462.9 415.228 462.5 415.828 461.9 416.028L396.1 453.528C394.7 454.228 393.1 454.328 391.7 453.728L325.3 416.028C325 415.928 324.8 415.728 324.7 415.428V427.528C324.7 428.028 325 428.428 325.4 428.528L391.8 466.228C393.2 466.828 394.9 466.828 396.2 466.028L462 428.628C462.6 428.328 463 427.828 463.1 427.228V414.628H463Z" fill="#8D0034"/>
<path opacity="0.85" d="M463.3 415.228L396.1 453.428C394.7 454.128 393.1 454.228 391.7 453.628L324.6 415.428" stroke="white" stroke-width="0.3863"/>
</g>
<path opacity="0.8" d="M391.7 429.128L325.3 391.428C324.1 390.728 324.3 389.628 325.6 388.928L391.4 351.528C392.8 350.728 394.4 350.728 395.8 351.328L462.2 389.028C463.4 389.628 463.2 390.828 461.9 391.528L396.1 428.928C394.7 429.628 393.1 429.728 391.7 429.128Z" fill="#FF0000"/>
<path opacity="0.86" d="M463 390.128C462.9 390.728 462.5 391.328 461.9 391.528L396.1 428.928C394.7 429.628 393.1 429.728 391.7 429.128L325.3 391.428C325 391.328 324.8 391.128 324.7 390.828V402.928C324.7 403.428 325 403.828 325.4 403.928L391.8 441.628C393.2 442.228 394.9 442.228 396.2 441.428L462 404.028C462.6 403.728 463 403.228 463.1 402.628V390.028H463V390.128Z" fill="#8D0034"/>
<path opacity="0.85" d="M419.6 381.728L432.9 389.128L419.6 396.428V381.728Z" fill="#6A0220"/>
<path opacity="0.85" d="M394.5 370.628L402.1 368.628L399.5 373.728L406.6 377.228L396.8 377.928L393.8 383.928L391.3 376.928L378.6 375.528L389.1 371.928L388.7 366.928L394.5 370.628ZM396.4 411.528L381.1 402.628L403 397.928L396.4 411.528ZM369.7 383.228C376.5 383.228 382 386.228 382 389.928C382 393.628 376.5 396.628 369.7 396.628C362.9 396.628 357.4 393.628 357.4 389.928C357.4 386.228 362.9 383.228 369.7 383.228Z" fill="white"/>
<path opacity="0.85" d="M419.6 381.728V396.428L418.2 397.228L404.9 389.928L419.6 381.728Z" fill="#D60541"/>
<path opacity="0.85" d="M463.3 390.728L396.1 428.928C394.7 429.628 393.1 429.728 391.7 429.128L324.6 390.928" stroke="white" stroke-width="0.3863"/>
</g>
<path opacity="0.151" d="M159 553.928L94.7 517.328C93.3 516.528 93.5 515.128 95.1 514.228L114 503.428L183.4 542.928L164.5 553.628C162.8 554.628 160.8 554.728 159 553.928Z" fill="#636464"/>
<path d="M179.2 530.528L112.8 492.728C111.7 492.028 111.8 490.928 113.1 490.228L178.9 452.728C180.3 452.028 181.9 451.928 183.3 452.528L249.7 490.328C250.8 491.028 250.7 492.128 249.4 492.828L183.6 530.328C182.2 531.028 180.6 531.128 179.2 530.528Z" fill="#99A2A6"/>
<path d="M250.5 491.428C250.5 491.928 250.1 492.428 249.4 492.828L183.6 530.328C182.2 531.028 180.6 531.128 179.2 530.528L112.8 492.728C112.2 492.428 112 491.928 112 491.528V504.228C112 504.728 112.3 505.128 112.7 505.328L179.1 543.128C180.5 543.728 182.2 543.728 183.5 542.928L249.3 505.428C249.8 505.228 250.2 504.728 250.4 504.228L250.5 491.428Z" fill="url(#paint34_linear)"/>
<path opacity="0.8" d="M179 503.828L112.6 466.228C111.4 465.528 111.6 464.428 112.9 463.728L178.7 426.328C180.1 425.528 181.7 425.528 183.1 426.128L249.5 463.828C250.7 464.428 250.5 465.628 249.2 466.328L183.4 503.728C182.1 504.428 180.4 504.528 179 503.828Z" fill="url(#paint35_linear)"/>
<path opacity="0.8" d="M250.3 464.928C250.2 465.528 249.8 466.128 249.2 466.328L183.4 503.728C182 504.428 180.4 504.528 179 503.928L112.6 466.228C112.3 466.128 112.1 465.928 112 465.628V477.728C112 478.228 112.3 478.628 112.7 478.728L179.1 516.428C180.5 517.028 182.2 517.028 183.5 516.228L249.3 478.828C249.9 478.528 250.3 478.028 250.4 477.428V464.828H250.3V464.928Z" fill="#1A99A3"/>
<path opacity="0.8" d="M250.6 465.428L183.4 503.628C182 504.328 180.4 504.428 179 503.828L111.9 465.628" stroke="white" stroke-width="0.3863"/>
<path d="M169.9 478.928C169.7 478.828 169.6 478.728 169.5 478.628L166.6 474.828L197.6 456.828L204 457.828C204.2 457.828 204.5 457.928 204.6 458.028C204.8 458.128 204.9 458.228 205 458.428L206 460.328C206.2 460.628 206 460.928 205.6 461.228L204.2 462.028C202.6 462.928 202.3 464.428 203.6 465.528L205.5 467.228C205.9 467.528 205.8 467.928 205.4 468.228L204.1 469.028L201.8 467.628C201.5 467.428 201.4 467.228 201.4 467.028C201.4 465.828 200.9 463.428 200.9 463.228L197.5 463.428C197.5 463.428 197.9 465.528 197.9 466.728L193.5 466.928L193.7 468.928L198.8 468.728C199 468.828 199.1 468.928 199.3 469.028L202.3 470.728L200.3 474.528C200.2 474.828 199.8 475.028 199.3 475.128L190.2 476.628H190L187.3 475.128C187 474.928 186.9 474.728 186.9 474.528C186.9 473.328 186.4 470.928 186.4 470.728L183 470.928C183 470.928 183.4 472.928 183.4 474.228L179 474.428L179.2 476.428L184.3 476.228C184.5 476.328 184.6 476.428 184.8 476.528L187.1 477.828L185.7 478.628C185.2 478.928 184.4 478.928 183.8 478.728L182.7 478.328C180.9 477.628 178.6 477.728 176.9 478.528L175.8 479.028C175.5 479.128 175.1 479.228 174.8 479.228L170.9 479.028C170.5 479.228 170.2 479.128 169.9 478.928ZM174 451.828L175.4 451.128C175.9 450.828 176.6 450.828 177.2 451.028L180.1 452.128C182 452.828 184.6 452.628 186.2 451.728L187.6 450.928C188 450.728 188.6 450.628 189.1 450.728L192.3 451.328C192.5 451.328 192.7 451.428 192.9 451.528C193.1 451.628 193.2 451.728 193.3 451.928L195.1 455.628L164.1 473.628L157.5 471.928C157.3 471.928 157.1 471.828 157 471.728C156.8 471.628 156.6 471.428 156.6 471.228L156.3 469.028C156.3 468.828 156.4 468.628 156.6 468.428L157.5 467.828C158.9 466.828 159 465.528 157.8 464.428L157 463.728C156.6 463.428 156.7 462.928 157.2 462.628L158.6 461.828L160.9 463.128C161.1 463.228 161.3 463.328 161.5 463.428L161.2 466.428L164.6 466.528L164.9 464.028C167 464.028 170.5 464.228 170.5 464.228L170.8 462.228C170.6 462.228 166.5 462.028 164.3 461.928C163.9 461.928 163.6 461.828 163.3 461.628L160.6 460.128L160.7 460.028L163.2 454.728C163.3 454.428 163.7 454.228 164.2 454.128L170.7 452.928L173.7 454.628C173.9 454.728 174.1 454.828 174.3 454.928L174 457.928L177.4 458.028L177.7 455.528C179.8 455.528 183.3 455.728 183.3 455.728L183.6 453.728C183.4 453.728 179.3 453.528 177.1 453.428C176.7 453.428 176.4 453.328 176.1 453.128L174 451.828ZM195.4 450.028C194.8 449.728 194.2 449.428 193.4 449.328L190.2 448.728C188.5 448.428 186.6 448.728 185.3 449.428L183.9 450.228C183.4 450.528 182.6 450.528 182 450.328L179.1 449.228C177.3 448.528 174.8 448.628 173.2 449.528L171.2 450.528C171 450.628 170.8 450.628 170.7 450.728L163.5 452.028C161.9 452.328 160.7 453.028 160.3 453.928L157.8 459.228C157.7 459.328 157.6 459.528 157.4 459.628L155.1 460.928C153.5 461.828 153.2 463.328 154.5 464.528L155.3 465.228C155.7 465.528 155.6 465.928 155.2 466.228L154.3 466.828C153.5 467.428 153.1 468.128 153.2 468.828L153.5 471.028C153.6 471.728 154.1 472.328 154.9 472.828C155.4 473.128 155.9 473.328 156.5 473.428L163.5 475.228L166.6 479.228C166.9 479.628 167.2 479.928 167.7 480.228C168.5 480.728 169.6 481.028 170.8 481.028L174.6 481.228C175.9 481.328 177.1 481.028 178 480.628L179.1 480.128C179.6 479.928 180.3 479.828 180.9 480.028L182 480.428C183.9 481.128 186.5 481.028 188.1 480.028L190.4 478.728C190.6 478.628 190.8 478.528 191 478.528L200.1 477.028C201.7 476.728 202.9 476.028 203.4 475.128L205.7 470.928C205.8 470.828 205.9 470.728 206 470.628L207.8 469.528C209.3 468.628 209.4 467.228 208.3 466.128L206.4 464.428C206 464.128 206.1 463.628 206.6 463.328L208 462.528C209.3 461.828 209.7 460.728 209.2 459.728L208.2 457.828C208 457.428 207.5 457.028 207 456.628C206.4 456.328 205.7 456.028 204.9 455.928L198.5 454.828L196.6 451.128C196.4 450.728 195.9 450.328 195.4 450.028Z" fill="white"/>
<path opacity="0.151" d="M512.1 653.628L447.8 617.028C446.4 616.228 446.6 614.828 448.2 613.928L467.1 603.128L536.5 642.628L517.6 653.328C515.8 654.328 513.8 654.428 512.1 653.628Z" fill="#636464"/>
<path d="M532.2 630.128L465.8 592.328C464.7 591.628 464.8 590.528 466.1 589.828L531.9 552.328C533.3 551.628 534.9 551.528 536.3 552.128L602.7 589.928C603.8 590.628 603.7 591.728 602.4 592.428L536.6 630.028C535.2 630.728 533.6 630.828 532.2 630.128Z" fill="#99A2A6"/>
<path d="M603.5 591.128C603.5 591.628 603.1 592.128 602.4 592.528L536.6 630.028C535.2 630.728 533.6 630.828 532.2 630.228L465.8 592.428C465.2 592.128 465 591.628 465 591.228V603.928C465 604.428 465.3 604.828 465.7 605.028L532.1 642.828C533.5 643.428 535.2 643.428 536.5 642.628L602.3 605.128C602.8 604.928 603.2 604.428 603.4 603.928L603.5 591.128Z" fill="url(#paint36_linear)"/>
<path opacity="0.8" d="M532.1 602.428L465.6 564.928C464.4 564.228 464.6 563.128 465.9 562.428L531.6 524.928C533 524.128 534.6 524.128 536 524.728L602.5 562.228C603.7 562.828 603.5 564.028 602.2 564.728L536.6 602.228C535.2 603.028 533.5 603.128 532.1 602.428Z" fill="#0DB0FE"/>
<path opacity="0.8" d="M603.3 563.328C603.2 563.928 602.8 564.528 602.2 564.728L536.6 602.328C535.2 603.028 533.6 603.128 532.2 602.528L465.6 564.928C465.3 564.828 465.1 564.628 465 564.328V576.428C465 576.928 465.3 577.328 465.7 577.428L532.2 614.928C533.6 615.528 535.3 615.528 536.6 614.728L602.3 577.228C602.9 576.928 603.3 576.428 603.4 575.828V563.228L603.3 563.328Z" fill="#1286F9"/>
<path opacity="0.8" d="M603.6 564.028L536.4 602.228C535 602.928 533.4 603.028 532 602.428L464.9 564.228" stroke="white" stroke-width="0.3863"/>
<path d="M553.4 563.728C551.7 562.728 551.7 561.228 553.4 560.228L557.6 557.828V566.128L553.4 563.728ZM560.9 555.028L546.5 546.728C543.5 545.028 538.7 545.028 535.7 546.728L532.9 548.328L535.3 549.728L538.1 548.128C539.8 547.128 542.4 547.128 544.1 548.128L556.8 555.428L551 558.828C548 560.528 548.1 563.328 551 565.028L556.9 568.428L537.2 579.828C535.6 580.828 532.9 580.828 531.2 579.828L510.2 567.728C508.5 566.728 508.5 565.228 510.2 564.228L512.8 562.728L510.4 561.328L507.8 562.828C504.8 564.528 504.9 567.328 507.8 569.028L528.8 581.128C531.8 582.828 536.6 582.828 539.6 581.128L560.9 568.728V555.028Z" fill="white"/>
<path d="M529.3 547.928L527.5 546.928C527.2 546.728 526.8 546.628 526.4 546.428C525.9 546.328 525.5 546.228 525 546.228C524.5 546.228 524 546.328 523.4 546.428C522.9 546.528 522.4 546.828 521.9 547.128L518.5 549.128C518 549.428 517.4 549.628 517 549.728C516.8 549.728 516.5 549.728 516.1 549.528L515.5 549.228L513.2 550.628L513.8 550.928C514.2 551.128 514.2 551.328 514.1 551.428C514 551.728 513.7 552.028 513.2 552.328L509.8 554.328C509.3 554.628 508.9 554.928 508.7 555.228C508.5 555.528 508.3 555.828 508.4 556.128C508.4 556.428 508.5 556.728 508.7 556.928C508.9 557.128 509.2 557.428 509.5 557.528L511.3 558.528L513.5 557.228L512 556.328C511.9 556.228 511.8 556.228 511.8 556.128V555.928C511.9 555.828 511.9 555.728 512 555.728C512.1 555.628 512.3 555.528 512.4 555.428L515.8 553.428C516.3 553.128 516.7 552.828 516.9 552.428C517.1 552.128 517.2 551.828 517.2 551.528V551.328H517.5C518 551.328 518.5 551.228 519 551.128C519.6 551.028 520.1 550.828 520.6 550.428L524 548.428C524.1 548.328 524.3 548.228 524.5 548.128C524.6 548.028 524.8 548.028 524.9 548.028H525.1C525.2 548.028 525.3 548.028 525.4 548.128L526.9 549.028L529.3 547.928Z" fill="white"/>
<path d="M527.6 552.628C527.2 552.328 526.6 552.228 525.9 552.228C525.3 552.228 524.8 552.328 524.3 552.628C523.8 552.928 523.6 553.228 523.6 553.528C523.6 553.928 523.8 554.228 524.3 554.528C524.8 554.828 525.4 554.928 526 554.928C526.6 554.928 527.1 554.828 527.6 554.528C528 554.328 528.2 554.028 528.3 553.628C528.3 553.228 528.1 552.828 527.6 552.628Z" fill="white"/>
<path d="M522.2 557.828L519.5 556.228L512.2 558.628L514.6 559.928L522.2 557.828Z" fill="white"/>
<path d="M537.6 552.628L535.8 551.628L533.6 552.928L535.1 553.828L535.3 554.028V554.128C535.3 554.228 535.2 554.328 535.1 554.328C535 554.428 534.8 554.528 534.7 554.628L531.3 556.628C530.8 556.928 530.4 557.228 530.2 557.528C530 557.828 529.9 558.128 529.9 558.428V558.628H529.6C529.1 558.628 528.6 558.728 528.1 558.828C527.6 558.928 527 559.128 526.5 559.528L523.1 561.528C523 561.628 522.8 561.728 522.6 561.828C522.5 561.928 522.3 561.928 522.2 561.928H521.9L521.6 561.828L520.1 560.928L517.9 562.228L519.7 563.228C520 563.428 520.4 563.528 520.8 563.728C521.3 563.828 521.7 563.928 522.2 563.928C522.7 563.928 523.2 563.828 523.8 563.728C524.3 563.628 524.8 563.428 525.3 563.028L528.7 561.028C529.2 560.728 529.7 560.528 530.2 560.428C530.5 560.428 530.8 560.428 531.1 560.628L531.7 560.928L534 559.528L533.4 559.228C533 559.028 533 558.828 533 558.728C533.1 558.428 533.4 558.128 534 557.828L537.4 555.828C537.9 555.528 538.3 555.228 538.5 554.928C538.8 554.628 538.9 554.328 538.9 554.028C538.9 553.728 538.8 553.428 538.6 553.228C538.2 553.028 537.9 552.828 537.6 552.628Z" fill="white"/>
<path opacity="0.151" d="M765 583.328L700.6 546.728C699.2 545.928 699.4 544.528 701 543.628L719.9 532.828L789.3 572.328L770.4 583.028C768.7 584.028 766.7 584.128 765 583.328Z" fill="#636464"/>
<path d="M785.1 559.928L718.7 522.128C717.6 521.428 717.7 520.328 719 519.628L784.8 482.128C786.2 481.428 787.8 481.328 789.2 481.928L855.6 519.728C856.7 520.428 856.6 521.528 855.3 522.228L789.5 559.728C788.1 560.428 786.5 560.528 785.1 559.928Z" fill="#99A2A6"/>
<path d="M856.4 520.828C856.4 521.328 856 521.828 855.3 522.228L789.5 559.728C788.1 560.428 786.5 560.528 785.1 559.928L718.7 522.128C718.1 521.828 717.9 521.328 717.9 520.928V533.628C717.9 534.128 718.2 534.528 718.6 534.728L785 572.528C786.4 573.128 788.1 573.128 789.4 572.328L855.2 534.828C855.7 534.628 856.1 534.128 856.3 533.628L856.4 520.828Z" fill="url(#paint37_linear)"/>
<g opacity="0.85">
<g opacity="0.75">
<path opacity="0.6" d="M856.585 283.828L789.385 246.928C787.985 246.328 786.285 246.328 784.985 247.128L717.985 284.628V510.028H718.085C718.185 510.428 718.485 510.728 718.785 510.928L785.185 548.628C786.585 549.228 788.285 549.228 789.585 548.428L855.385 511.228C855.885 511.028 856.285 510.528 856.385 510.028L856.585 283.828Z" fill="url(#paint38_linear)"/>
<path opacity="0.8" d="M856.585 283.828L789.385 246.928C787.985 246.328 786.285 246.328 784.985 247.128L717.985 284.628V510.028H718.085C718.185 510.428 718.485 510.728 718.785 510.928L785.185 548.628C786.585 549.228 788.285 549.228 789.585 548.428L855.385 511.228C855.885 511.028 856.285 510.528 856.385 510.028L856.585 283.828Z" fill="url(#paint39_linear)"/>
</g>
<g opacity="0.85">
<path opacity="0.8" d="M785.1 535.728L718.7 498.028C717.5 497.328 717.7 496.228 719 495.528L784.8 458.128C786.2 457.328 787.8 457.328 789.2 457.928L855.6 495.628C856.8 496.228 856.6 497.428 855.3 498.128L789.5 535.528C788.2 536.228 786.5 536.328 785.1 535.728Z" fill="#FF0000"/>
<path opacity="0.79" d="M856.4 496.728C856.3 497.328 855.9 497.928 855.3 498.128L789.5 535.528C788.1 536.228 786.5 536.328 785.1 535.728L718.7 498.028C718.4 497.928 718.2 497.728 718.1 497.428V509.528C718.1 510.028 718.4 510.428 718.8 510.528L785.2 548.228C786.6 548.828 788.3 548.828 789.6 548.028L855.4 510.628C856 510.328 856.4 509.828 856.5 509.228V496.628H856.4V496.728Z" fill="#8D0034"/>
<path opacity="0.85" d="M856.7 497.328L789.5 535.528C788.1 536.228 786.5 536.328 785.1 535.728L717.9 497.528" stroke="white" stroke-width="0.3863"/>
</g>
<g opacity="0.85">
<path opacity="0.8" d="M785.1 509.928L718.7 472.228C717.5 471.528 717.7 470.428 719 469.728L784.8 432.328C786.2 431.528 787.8 431.528 789.2 432.128L855.6 469.828C856.8 470.428 856.6 471.628 855.3 472.328L789.5 509.728C788.2 510.528 786.5 510.528 785.1 509.928Z" fill="#FF0000"/>
<path opacity="0.71" d="M856.4 470.928C856.3 471.528 855.9 472.128 855.3 472.328L789.5 509.728C788.1 510.428 786.5 510.528 785.1 509.928L718.7 472.228C718.4 472.128 718.2 471.928 718.1 471.628V483.728C718.1 484.228 718.4 484.628 718.8 484.728L785.2 522.428C786.6 523.028 788.3 523.028 789.6 522.228L855.4 484.828C856 484.528 856.4 484.028 856.5 483.428V470.828H856.4V470.928Z" fill="#8D0034"/>
<path opacity="0.85" d="M856.7 471.528L789.5 509.728C788.1 510.428 786.5 510.528 785.1 509.928L718 471.728" stroke="white" stroke-width="0.3863"/>
</g>
<path opacity="0.8" d="M785.1 485.328L718.7 447.628C717.5 446.928 717.7 445.828 719 445.128L784.8 407.728C786.2 406.928 787.8 406.928 789.2 407.528L855.6 445.228C856.8 445.828 856.6 447.028 855.3 447.728L789.5 485.128C788.2 485.928 786.5 486.028 785.1 485.328Z" fill="#FF0000"/>
<path opacity="0.86" d="M856.4 446.428C856.3 447.028 855.9 447.628 855.3 447.828L789.5 485.228C788.1 485.928 786.5 486.028 785.1 485.428L718.7 447.728C718.4 447.628 718.2 447.428 718.1 447.128V459.228C718.1 459.728 718.4 460.128 718.8 460.228L785.2 497.928C786.6 498.528 788.3 498.528 789.6 497.728L855.4 460.328C856 460.028 856.4 459.528 856.5 458.928V446.328H856.4V446.428Z" fill="#8D0034"/>
<path opacity="0.85" d="M813 438.028L826.3 445.328L813 452.728V438.028Z" fill="#6A0220"/>
<path opacity="0.85" d="M787.9 426.928L795.5 424.928L792.9 430.028L800 433.528L790.2 434.228L787.2 440.228L784.7 433.228L772.1 431.828L782.6 428.228L782.2 423.228L787.9 426.928ZM789.8 467.828L774.5 458.928L796.4 454.228L789.8 467.828ZM763.1 439.528C769.9 439.528 775.4 442.528 775.4 446.228C775.4 449.928 769.9 452.928 763.1 452.928C756.3 452.928 750.8 449.928 750.8 446.228C750.8 442.528 756.3 439.528 763.1 439.528Z" fill="white"/>
<path opacity="0.85" d="M813 438.028V452.728L811.6 453.528L798.3 446.128L813 438.028Z" fill="#D60541"/>
<path opacity="0.85" d="M856.7 446.928L789.5 485.128C788.1 485.828 786.5 485.928 785.1 485.328L718 447.128" stroke="white" stroke-width="0.3863"/>
</g>
<path d="M761.4 287.628L768.1 291.528" stroke="url(#paint40_linear)" stroke-width="5.511" stroke-miterlimit="10"/>
<path d="M622.6 530.528L628.7 526.828" stroke="url(#paint41_linear)" stroke-width="5.511" stroke-miterlimit="10"/>
</g>
<defs>
<linearGradient id="paint0_linear" x1="703.66" y1="212.533" x2="854.646" y2="212.533" gradientUnits="userSpaceOnUse">
<stop stop-color="#5C848A"/>
<stop offset="0.08" stop-color="#678B91"/>
<stop offset="0.33" stop-color="#889FA5"/>
<stop offset="0.58" stop-color="#A0AEB4"/>
<stop offset="0.81" stop-color="#AEB7BD"/>
<stop offset="1" stop-color="#B3BAC0"/>
</linearGradient>
<linearGradient id="paint1_linear" x1="522.793" y1="181.962" x2="800.409" y2="181.962" gradientUnits="userSpaceOnUse">
<stop stop-color="#5C848A"/>
<stop offset="0.08" stop-color="#678B91"/>
<stop offset="0.33" stop-color="#889FA5"/>
<stop offset="0.58" stop-color="#A0AEB4"/>
<stop offset="0.81" stop-color="#AEB7BD"/>
<stop offset="1" stop-color="#B3BAC0"/>
</linearGradient>
<linearGradient id="paint2_linear" x1="565.421" y1="326.993" x2="719.725" y2="326.993" gradientUnits="userSpaceOnUse">
<stop stop-color="#5C848A"/>
<stop offset="0.08" stop-color="#678B91"/>
<stop offset="0.33" stop-color="#889FA5"/>
<stop offset="0.58" stop-color="#A0AEB4"/>
<stop offset="0.81" stop-color="#AEB7BD"/>
<stop offset="1" stop-color="#B3BAC0"/>
</linearGradient>
<linearGradient id="paint3_linear" x1="809.763" y1="145.206" x2="964.066" y2="145.206" gradientUnits="userSpaceOnUse">
<stop stop-color="#5C848A"/>
<stop offset="0.08" stop-color="#678B91"/>
<stop offset="0.33" stop-color="#889FA5"/>
<stop offset="0.58" stop-color="#A0AEB4"/>
<stop offset="0.81" stop-color="#AEB7BD"/>
<stop offset="1" stop-color="#B3BAC0"/>
</linearGradient>
<linearGradient id="paint4_linear" x1="103.599" y1="505.062" x2="257.903" y2="505.062" gradientUnits="userSpaceOnUse">
<stop stop-color="#5C848A"/>
<stop offset="0.08" stop-color="#678B91"/>
<stop offset="0.33" stop-color="#889FA5"/>
<stop offset="0.58" stop-color="#A0AEB4"/>
<stop offset="0.81" stop-color="#AEB7BD"/>
<stop offset="1" stop-color="#B3BAC0"/>
</linearGradient>
<linearGradient id="paint5_linear" x1="515.113" y1="437.79" x2="669.416" y2="437.79" gradientUnits="userSpaceOnUse">
<stop stop-color="#5C848A"/>
<stop offset="0.08" stop-color="#678B91"/>
<stop offset="0.33" stop-color="#889FA5"/>
<stop offset="0.58" stop-color="#A0AEB4"/>
<stop offset="0.81" stop-color="#AEB7BD"/>
<stop offset="1" stop-color="#B3BAC0"/>
</linearGradient>
<linearGradient id="paint6_linear" x1="153.851" y1="121.02" x2="308.154" y2="121.02" gradientUnits="userSpaceOnUse">
<stop stop-color="#5C848A"/>
<stop offset="0.08" stop-color="#678B91"/>
<stop offset="0.33" stop-color="#889FA5"/>
<stop offset="0.58" stop-color="#A0AEB4"/>
<stop offset="0.81" stop-color="#AEB7BD"/>
<stop offset="1" stop-color="#B3BAC0"/>
</linearGradient>
<linearGradient id="paint7_linear" x1="559.664" y1="400.976" x2="875.202" y2="400.976" gradientUnits="userSpaceOnUse">
<stop stop-color="#5C848A"/>
<stop offset="0.08" stop-color="#678B91"/>
<stop offset="0.33" stop-color="#889FA5"/>
<stop offset="0.58" stop-color="#A0AEB4"/>
<stop offset="0.81" stop-color="#AEB7BD"/>
<stop offset="1" stop-color="#B3BAC0"/>
</linearGradient>
<linearGradient id="paint8_linear" x1="162.638" y1="295.539" x2="203.363" y2="295.539" gradientUnits="userSpaceOnUse">
<stop stop-color="#5C848A"/>
<stop offset="0.08" stop-color="#678B91"/>
<stop offset="0.33" stop-color="#889FA5"/>
<stop offset="0.58" stop-color="#A0AEB4"/>
<stop offset="0.81" stop-color="#AEB7BD"/>
<stop offset="1" stop-color="#B3BAC0"/>
</linearGradient>
<linearGradient id="paint9_linear" x1="37.1492" y1="347.802" x2="349.913" y2="347.802" gradientUnits="userSpaceOnUse">
<stop stop-color="#5C848A"/>
<stop offset="0.08" stop-color="#678B91"/>
<stop offset="0.33" stop-color="#889FA5"/>
<stop offset="0.58" stop-color="#A0AEB4"/>
<stop offset="0.81" stop-color="#AEB7BD"/>
<stop offset="1" stop-color="#B3BAC0"/>
</linearGradient>
<linearGradient id="paint10_linear" x1="214.74" y1="525.09" x2="374.18" y2="525.09" gradientUnits="userSpaceOnUse">
<stop stop-color="#5C848A"/>
<stop offset="0.08" stop-color="#678B91"/>
<stop offset="0.33" stop-color="#889FA5"/>
<stop offset="0.58" stop-color="#A0AEB4"/>
<stop offset="0.81" stop-color="#AEB7BD"/>
<stop offset="1" stop-color="#B3BAC0"/>
</linearGradient>
<linearGradient id="paint11_linear" x1="312.987" y1="201.513" x2="467.29" y2="201.513" gradientUnits="userSpaceOnUse">
<stop stop-color="#5C848A"/>
<stop offset="0.08" stop-color="#678B91"/>
<stop offset="0.33" stop-color="#889FA5"/>
<stop offset="0.58" stop-color="#A0AEB4"/>
<stop offset="0.81" stop-color="#AEB7BD"/>
<stop offset="1" stop-color="#B3BAC0"/>
</linearGradient>
<linearGradient id="paint12_linear" x1="225.254" y1="366.665" x2="350.148" y2="366.665" gradientUnits="userSpaceOnUse">
<stop stop-color="#5C848A"/>
<stop offset="0.08" stop-color="#678B91"/>
<stop offset="0.33" stop-color="#889FA5"/>
<stop offset="0.58" stop-color="#A0AEB4"/>
<stop offset="0.81" stop-color="#AEB7BD"/>
<stop offset="1" stop-color="#B3BAC0"/>
</linearGradient>
<linearGradient id="paint13_linear" x1="271.064" y1="163.192" x2="344.628" y2="163.192" gradientUnits="userSpaceOnUse">
<stop stop-color="#5C848A"/>
<stop offset="0.08" stop-color="#678B91"/>
<stop offset="0.33" stop-color="#889FA5"/>
<stop offset="0.58" stop-color="#A0AEB4"/>
<stop offset="0.81" stop-color="#AEB7BD"/>
<stop offset="1" stop-color="#B3BAC0"/>
</linearGradient>
<linearGradient id="paint14_linear" x1="632.326" y1="489.102" x2="734.601" y2="489.102" gradientUnits="userSpaceOnUse">
<stop stop-color="#5C848A"/>
<stop offset="0.08" stop-color="#678B91"/>
<stop offset="0.33" stop-color="#889FA5"/>
<stop offset="0.58" stop-color="#A0AEB4"/>
<stop offset="0.81" stop-color="#AEB7BD"/>
<stop offset="1" stop-color="#B3BAC0"/>
</linearGradient>
<linearGradient id="paint15_linear" x1="429.05" y1="241.113" x2="572.64" y2="241.113" gradientUnits="userSpaceOnUse">
<stop stop-color="#5C848A"/>
<stop offset="0.08" stop-color="#678B91"/>
<stop offset="0.33" stop-color="#889FA5"/>
<stop offset="0.58" stop-color="#A0AEB4"/>
<stop offset="0.81" stop-color="#AEB7BD"/>
<stop offset="1" stop-color="#B3BAC0"/>
</linearGradient>
<linearGradient id="paint16_linear" x1="120.08" y1="378.705" x2="153.764" y2="378.705" gradientUnits="userSpaceOnUse">
<stop stop-color="#5C848A"/>
<stop offset="0.08" stop-color="#678B91"/>
<stop offset="0.33" stop-color="#889FA5"/>
<stop offset="0.58" stop-color="#A0AEB4"/>
<stop offset="0.81" stop-color="#AEB7BD"/>
<stop offset="1" stop-color="#B3BAC0"/>
</linearGradient>
<linearGradient id="paint17_linear" x1="685.302" y1="597.83" x2="763.186" y2="597.83" gradientUnits="userSpaceOnUse">
<stop stop-color="#5C848A"/>
<stop offset="0.08" stop-color="#678B91"/>
<stop offset="0.33" stop-color="#889FA5"/>
<stop offset="0.58" stop-color="#A0AEB4"/>
<stop offset="0.81" stop-color="#AEB7BD"/>
<stop offset="1" stop-color="#B3BAC0"/>
</linearGradient>
<linearGradient id="paint18_linear" x1="708.435" y1="644.898" x2="742.118" y2="644.898" gradientUnits="userSpaceOnUse">
<stop stop-color="#5C848A"/>
<stop offset="0.08" stop-color="#678B91"/>
<stop offset="0.33" stop-color="#889FA5"/>
<stop offset="0.58" stop-color="#A0AEB4"/>
<stop offset="0.81" stop-color="#AEB7BD"/>
<stop offset="1" stop-color="#B3BAC0"/>
</linearGradient>
<linearGradient id="paint19_linear" x1="490.487" y1="49.5311" x2="524.17" y2="49.5311" gradientUnits="userSpaceOnUse">
<stop stop-color="#5C848A"/>
<stop offset="0.08" stop-color="#678B91"/>
<stop offset="0.33" stop-color="#889FA5"/>
<stop offset="0.58" stop-color="#A0AEB4"/>
<stop offset="0.81" stop-color="#AEB7BD"/>
<stop offset="1" stop-color="#B3BAC0"/>
</linearGradient>
<linearGradient id="paint20_linear" x1="455.357" y1="605.529" x2="609.661" y2="605.529" gradientUnits="userSpaceOnUse">
<stop stop-color="#5C848A"/>
<stop offset="0.08" stop-color="#678B91"/>
<stop offset="0.33" stop-color="#889FA5"/>
<stop offset="0.58" stop-color="#A0AEB4"/>
<stop offset="0.81" stop-color="#AEB7BD"/>
<stop offset="1" stop-color="#B3BAC0"/>
</linearGradient>
<linearGradient id="paint21_linear" x1="79.4123" y1="441.893" x2="88.8232" y2="441.893" gradientUnits="userSpaceOnUse">
<stop stop-color="#E1E8EC"/>
<stop offset="1" stop-color="#E1E8EC"/>
</linearGradient>
<linearGradient id="paint22_linear" x1="88.8895" y1="367.972" x2="101.071" y2="367.972" gradientUnits="userSpaceOnUse">
<stop stop-color="#E1E8EC"/>
<stop offset="1" stop-color="#E1E8EC"/>
</linearGradient>
<linearGradient id="paint23_linear" x1="248.441" y1="402.465" x2="257.852" y2="402.465" gradientUnits="userSpaceOnUse">
<stop stop-color="#E1E8EC"/>
<stop offset="1" stop-color="#E1E8EC"/>
</linearGradient>
<linearGradient id="paint24_linear" x1="467.746" y1="248.174" x2="477.157" y2="248.174" gradientUnits="userSpaceOnUse">
<stop stop-color="#E1E8EC"/>
<stop offset="1" stop-color="#E1E8EC"/>
</linearGradient>
<linearGradient id="paint25_linear" x1="662.57" y1="230.348" x2="557.994" y2="183.276" gradientUnits="userSpaceOnUse">
<stop stop-color="#5C848A"/>
<stop offset="0.08" stop-color="#678B91"/>
<stop offset="0.33" stop-color="#889FA5"/>
<stop offset="0.58" stop-color="#A0AEB4"/>
<stop offset="0.81" stop-color="#AEB7BD"/>
<stop offset="1" stop-color="#B3BAC0"/>
</linearGradient>
<linearGradient id="paint26_linear" x1="628.506" y1="223.631" x2="628.506" y2="11.1561" gradientUnits="userSpaceOnUse">
<stop stop-color="white"/>
<stop offset="0.12" stop-color="white" stop-opacity="0.92"/>
<stop offset="0.34" stop-color="white" stop-opacity="0.75"/>
<stop offset="0.47" stop-color="white" stop-opacity="0.57"/>
<stop offset="0.75" stop-color="white" stop-opacity="0.13"/>
<stop offset="0.83" stop-color="white" stop-opacity="0"/>
</linearGradient>
<linearGradient id="paint27_linear" x1="628.506" y1="223.631" x2="628.506" y2="11.1561" gradientUnits="userSpaceOnUse">
<stop stop-color="#BF0005"/>
<stop offset="0.34" stop-color="#FF0007" stop-opacity="0.75"/>
<stop offset="0.47" stop-color="#FF0F05" stop-opacity="0.57"/>
<stop offset="0.75" stop-color="#FF3401" stop-opacity="0.13"/>
<stop offset="0.83" stop-color="#FF3E00" stop-opacity="0"/>
</linearGradient>
<linearGradient id="paint28_linear" x1="627.47" y1="449.214" x2="522.894" y2="402.142" gradientUnits="userSpaceOnUse">
<stop stop-color="#5C848A"/>
<stop offset="0.08" stop-color="#678B91"/>
<stop offset="0.33" stop-color="#889FA5"/>
<stop offset="0.58" stop-color="#A0AEB4"/>
<stop offset="0.81" stop-color="#AEB7BD"/>
<stop offset="1" stop-color="#B3BAC0"/>
</linearGradient>
<linearGradient id="paint29_linear" x1="160.946" y1="281.601" x2="56.3704" y2="234.529" gradientUnits="userSpaceOnUse">
<stop stop-color="#5C848A"/>
<stop offset="0.08" stop-color="#678B91"/>
<stop offset="0.33" stop-color="#889FA5"/>
<stop offset="0.58" stop-color="#A0AEB4"/>
<stop offset="0.81" stop-color="#AEB7BD"/>
<stop offset="1" stop-color="#B3BAC0"/>
</linearGradient>
<linearGradient id="paint30_linear" x1="424.746" y1="214.242" x2="320.17" y2="167.17" gradientUnits="userSpaceOnUse">
<stop stop-color="#5C848A"/>
<stop offset="0.08" stop-color="#678B91"/>
<stop offset="0.33" stop-color="#889FA5"/>
<stop offset="0.58" stop-color="#A0AEB4"/>
<stop offset="0.81" stop-color="#AEB7BD"/>
<stop offset="1" stop-color="#B3BAC0"/>
</linearGradient>
<linearGradient id="paint31_linear" x1="427.932" y1="490.631" x2="323.356" y2="443.559" gradientUnits="userSpaceOnUse">
<stop stop-color="#5C848A"/>
<stop offset="0.08" stop-color="#678B91"/>
<stop offset="0.33" stop-color="#889FA5"/>
<stop offset="0.58" stop-color="#A0AEB4"/>
<stop offset="0.81" stop-color="#AEB7BD"/>
<stop offset="1" stop-color="#B3BAC0"/>
</linearGradient>
<linearGradient id="paint32_linear" x1="393.874" y1="483.887" x2="393.874" y2="271.454" gradientUnits="userSpaceOnUse">
<stop stop-color="white"/>
<stop offset="0.12" stop-color="white" stop-opacity="0.92"/>
<stop offset="0.34" stop-color="white" stop-opacity="0.75"/>
<stop offset="0.47" stop-color="white" stop-opacity="0.57"/>
<stop offset="0.75" stop-color="white" stop-opacity="0.13"/>
<stop offset="0.83" stop-color="white" stop-opacity="0"/>
</linearGradient>
<linearGradient id="paint33_linear" x1="393.874" y1="483.929" x2="393.874" y2="271.454" gradientUnits="userSpaceOnUse">
<stop stop-color="#BF0005"/>
<stop offset="0.34" stop-color="#FF0007" stop-opacity="0.75"/>
<stop offset="0.47" stop-color="#FF0F05" stop-opacity="0.57"/>
<stop offset="0.75" stop-color="#FF3401" stop-opacity="0.13"/>
<stop offset="0.83" stop-color="#FF3E00" stop-opacity="0"/>
</linearGradient>
<linearGradient id="paint34_linear" x1="215.412" y1="517.509" x2="110.836" y2="470.438" gradientUnits="userSpaceOnUse">
<stop stop-color="#5C848A"/>
<stop offset="0.08" stop-color="#678B91"/>
<stop offset="0.33" stop-color="#889FA5"/>
<stop offset="0.58" stop-color="#A0AEB4"/>
<stop offset="0.81" stop-color="#AEB7BD"/>
<stop offset="1" stop-color="#B3BAC0"/>
</linearGradient>
<linearGradient id="paint35_linear" x1="111.837" y1="464.973" x2="250.332" y2="464.973" gradientUnits="userSpaceOnUse">
<stop stop-color="#22D0CC"/>
<stop offset="1" stop-color="#57D5CE"/>
</linearGradient>
<linearGradient id="paint36_linear" x1="568.435" y1="617.184" x2="463.858" y2="570.112" gradientUnits="userSpaceOnUse">
<stop stop-color="#5C848A"/>
<stop offset="0.08" stop-color="#678B91"/>
<stop offset="0.33" stop-color="#889FA5"/>
<stop offset="0.58" stop-color="#A0AEB4"/>
<stop offset="0.81" stop-color="#AEB7BD"/>
<stop offset="1" stop-color="#B3BAC0"/>
</linearGradient>
<linearGradient id="paint37_linear" x1="821.335" y1="546.91" x2="716.759" y2="499.838" gradientUnits="userSpaceOnUse">
<stop stop-color="#5C848A"/>
<stop offset="0.08" stop-color="#678B91"/>
<stop offset="0.33" stop-color="#889FA5"/>
<stop offset="0.58" stop-color="#A0AEB4"/>
<stop offset="0.81" stop-color="#AEB7BD"/>
<stop offset="1" stop-color="#B3BAC0"/>
</linearGradient>
<linearGradient id="paint38_linear" x1="787.283" y1="540.166" x2="787.283" y2="327.733" gradientUnits="userSpaceOnUse">
<stop stop-color="white"/>
<stop offset="0.12" stop-color="white" stop-opacity="0.92"/>
<stop offset="0.34" stop-color="white" stop-opacity="0.75"/>
<stop offset="0.47" stop-color="white" stop-opacity="0.57"/>
<stop offset="0.75" stop-color="white" stop-opacity="0.13"/>
<stop offset="0.83" stop-color="white" stop-opacity="0"/>
</linearGradient>
<linearGradient id="paint39_linear" x1="787.283" y1="540.166" x2="787.283" y2="327.733" gradientUnits="userSpaceOnUse">
<stop stop-color="#BF0005"/>
<stop offset="0.34" stop-color="#FF0007" stop-opacity="0.75"/>
<stop offset="0.47" stop-color="#FF0F05" stop-opacity="0.57"/>
<stop offset="0.75" stop-color="#FF3401" stop-opacity="0.13"/>
<stop offset="0.83" stop-color="#FF3E00" stop-opacity="0"/>
</linearGradient>
<linearGradient id="paint40_linear" x1="760.039" y1="289.578" x2="769.45" y2="289.578" gradientUnits="userSpaceOnUse">
<stop stop-color="#E1E8EC"/>
<stop offset="1" stop-color="#E1E8EC"/>
</linearGradient>
<linearGradient id="paint41_linear" x1="619.928" y1="528.677" x2="631.454" y2="528.677" gradientUnits="userSpaceOnUse">
<stop stop-color="#E1E8EC"/>
<stop offset="1" stop-color="#E1E8EC"/>
</linearGradient>
<clipPath id="clip0">
<rect width="1000" height="700" fill="white"/>
</clipPath>
</defs>
</svg>
